<svg width="32" height="32" viewBox="0 0 32 32" fill="none" xmlns="http://www.w3.org/2000/svg">
<rect x="18" width="14" height="14" rx="1" fill="white"/>
<path d="M14.5 14.5L19 10H22V13L17.5 17.5L13 22H10V19L14.5 14.5Z" fill="white"/>
<rect y="18" width="14" height="14" rx="1" fill="white"/>
<path d="M4.57858 17.9998C4.54857 17.9999 4.51853 18 4.48844 18C0.471689 17.9998 1.92704 17.9998 4.57858 17.9998C13.0211 17.9649 18 12.9548 17.9987 4.48822C17.9974 -4.00844 18 11.9811 18 11.9811L11.9821 18C11.9821 18 7.53619 17.9999 4.57858 17.9998Z" fill="white"/>
<path d="M27.4214 14.0002C27.4515 14.0001 27.4815 14 27.5117 14C31.5285 14.0002 30.073 14.0002 27.4214 14.0002C18.9789 14.0351 14 19.0452 14.0013 27.5118C14.0026 36.0084 14 20.0189 14 20.0189L20.018 14C20.018 14 24.4638 14.0001 27.4214 14.0002Z" fill="white"/>
</svg>
