<svg width="20" height="20" viewBox="0 0 20 20" fill="none" xmlns="http://www.w3.org/2000/svg">
<rect x="11.25" width="8.75" height="8.75" rx="1" fill="white"/>
<path d="M9.0625 9.0625L11.875 6.25H13.75V8.125L10.9375 10.9375L8.125 13.75H6.25V11.875L9.0625 9.0625Z" fill="white"/>
<rect y="11.25" width="8.75" height="8.75" rx="1" fill="white"/>
<path d="M2.86174 11.2499C2.84295 11.25 2.82412 11.25 2.80527 11.25C0.29474 11.2499 1.20445 11.2499 2.86174 11.2499C8.13821 11.228 11.25 8.0967 11.2492 2.80514C11.2484 -2.50527 11.25 7.48817 11.25 7.48817L7.4888 11.25C7.4888 11.25 4.71025 11.2499 2.86174 11.2499Z" fill="white"/>
<path d="M17.1383 8.75012C17.1571 8.75004 17.1759 8.75 17.1948 8.75C19.7053 8.75014 18.7956 8.75015 17.1383 8.75012C11.8618 8.77199 8.75 11.9033 8.75082 17.1949C8.75165 22.5053 8.75 12.5118 8.75 12.5118L12.5112 8.75C12.5112 8.75 15.2898 8.75008 17.1383 8.75012Z" fill="white"/>
</svg>
